<?xml version="1.0" standalone="no"?><svg xmlns="http://www.w3.org/2000/svg" viewBox="0 0 1440 320"><path fill="#FAF6BB" fill-opacity="1" d="M0,288L30,266.7C60,245,120,203,180,176C240,149,300,139,360,149.3C420,160,480,192,540,218.7C600,245,660,267,720,277.3C780,288,840,288,900,250.7C960,213,1020,139,1080,122.7C1140,107,1200,149,1260,181.3C1320,213,1380,235,1410,245.3L1440,256L1440,320L1410,320C1380,320,1320,320,1260,320C1200,320,1140,320,1080,320C1020,320,960,320,900,320C840,320,780,320,720,320C660,320,600,320,540,320C480,320,420,320,360,320C300,320,240,320,180,320C120,320,60,320,30,320L0,320Z"></path></svg>